<?xml version="1.0" encoding="UTF-8"?>
<svg id="flower" xmlns="http://www.w3.org/2000/svg" xmlns:xlink="http://www.w3.org/1999/xlink" viewBox="0 0 630.3 876.2">
  <defs>
	<linearGradient id="Orchid" x1="-.7" y1="309.8" x2="282.2" y2="309.8" gradientTransform="translate(802.3 352.5) rotate(141.1)" gradientUnits="userSpaceOnUse">
	  <stop offset="0" stop-color="#ff7bac"/>
	  <stop offset=".2" stop-color="#ff7bac" stop-opacity=".8"/>
	  <stop offset=".6" stop-color="#ff7bac" stop-opacity=".4"/>
	  <stop offset=".9" stop-color="#ff7bac" stop-opacity="0"/>
	  <stop offset="1" stop-color="#ff7bac" stop-opacity="0"/>
	</linearGradient>
	<linearGradient id="Orchid-2" x1="-.7" y1="309.8" x2="282.2" y2="309.8" gradientTransform="translate(449.3 769.5) rotate(-146.9)" xlink:href="#Orchid"/>
	<linearGradient id="Orchid-3" x1="0" y1="312.7" x2="282.9" y2="312.7" gradientTransform="translate(-56.4 562.6) rotate(-74.9)" xlink:href="#Orchid"/>
	<linearGradient id="Orchid-4" x1="-.7" gradientTransform="translate(-15.9 17.8) rotate(-2.9)" xlink:href="#Orchid"/>
	<linearGradient id="Orchid-5" x1="-.7" y1="309.8" x2="282.2" y2="309.8" gradientTransform="translate(514.8 -112.1) rotate(69.1)" xlink:href="#Orchid"/>
  </defs>
  <g id="petal1">
	<path d="M386,286.2c-1.4-23.1-1.4-45.4-6.2-67.4,0-3.7.1-7.3.5-11,3.1-33.2,20.9-67.3,51.6-92.2,30.7-24.9,67.7-35.4,100.8-31.6,3.7.4,7.3,1,10.9,1.8,18.6,3.8,41.6,1.5,53.5,11.9,13.4,13.4,14.9,38.6,19.7,59.7.8,3.5,1.4,7.1,1.8,10.7,4.4,39.5-14,83.7-51.5,114.1-35.8,29.1-80.2,38.5-117,28.5-3-1.3-5.7-2.5-8.8-4.1-18.6-7.1-36.5-14.5-55.2-20.3h0Z" fill="url(#Orchid)"/>
  </g>
  <g id="petal2">
	<path d="M383.7,353.1c21.6-8.4,42.8-15.4,62.1-26.8,3.5-1.2,7-2.1,10.6-3,32.5-7.3,70.5-.9,103.6,20.6,33.2,21.5,54.6,53.4,61.2,86.1.7,3.6,1.3,7.3,1.7,10.9,2.1,18.8,11.4,40,5.2,54.6-8.6,16.9-32.1,26.1-50.6,37.2-3.1,1.8-6.3,3.5-9.6,5-36.3,16.4-83.9,12.6-124.4-13.7-38.7-25.1-61.4-64.4-63.3-102.5.4-3.2.7-6.2,1.2-9.7,1-19.9,2.5-39.2,2.3-58.8h0Z" fill="url(#Orchid-2)"/>
  </g>
  <g id="petal3">
	<path d="M322.4,371.6c14.7,17.9,27.8,35.9,44.7,50.8,2.2,2.9,4.2,6,6.1,9.2,17,28.7,22.6,66.7,12.4,104.9s-34,68.4-63,84.8c-3.2,1.8-6.5,3.5-9.9,5-17.2,7.8-34.6,23.2-50.3,21.8-18.7-2.9-34.8-22.5-51-36.7-2.7-2.4-5.2-4.9-7.7-7.6-26.8-29.4-37.9-75.9-25.4-122.6,11.9-44.6,42.3-78.3,77.9-91.9,3.2-.7,6.1-1.3,9.6-1.9,19.2-5.2,38-9.7,56.6-16h0Z" fill="url(#Orchid-3)"/>
  </g>
  <g id="petal4">
	<path d="M282,316.1c-12.5,19.5-25.6,37.6-34.5,58.2-2.1,3-4.4,5.9-6.9,8.6-22,25.1-56.5,42.1-95.9,44.2-39.5,2.1-75.6-11.2-100.1-33.7-2.7-2.5-5.3-5.1-7.8-7.9-12.8-14-32.8-25.7-36.3-41.1-3-18.7,10.6-40,19.1-59.8,1.4-3.3,3.1-6.5,4.8-9.7,19.7-34.5,60.5-59.5,108.7-62.1,46.1-2.5,87.5,16,111.4,45.7,1.6,2.8,3.1,5.4,4.7,8.5,10.9,16.6,21,33.1,32.7,48.9h0Z" fill="url(#Orchid-4)"/>
  </g>
  <g id="petal5">
	<path d="M323.1,263.4c-22.4-5.9-43.6-12.7-66-14.9-3.5-1.1-6.9-2.4-10.3-3.9-30.6-13.2-57.5-40.7-71.7-77.6-14.2-36.9-12.7-75.3,1.1-105.7,1.5-3.4,3.2-6.6,5.1-9.8,9.3-16.5,14.3-39.1,27.9-47.2,16.9-8.6,41.4-2.3,62.8-.3,3.6.3,7.1.9,10.7,1.6,38.9,8.1,75.2,39.1,92.6,84.2,16.6,43,11.8,88.2-9.1,120.1-2.2,2.4-4.2,4.6-6.6,7.1-12.5,15.5-25,30.2-36.4,46.2h0Z" fill="url(#Orchid-5)"/>
  </g>
  <g id="gan">
	<circle cx="333.8" cy="323.1" r="62.5" fill="#f15a24"/>
  </g>
  <g id="gan-2">
	<path d="M338.6,842.1c.8-24,91.3-22.9,56.3-291.9-.7-5.4-3.1-33.9-3.1-33.9,55.8,325-56.4,418.9-53.2,325.8Z" fill="#42210b"/>
  </g>
</svg>